<?xml version="1.0" standalone="no"?>
<!DOCTYPE svg PUBLIC "-//W3C//DTD SVG 20010904//EN"
 "http://www.w3.org/TR/2001/REC-SVG-20010904/DTD/svg10.dtd">
<svg version="1.0" xmlns="http://www.w3.org/2000/svg"
 width="900.000000pt" height="520.000000pt" viewBox="0 0 900.000000 520.000000"
 preserveAspectRatio="xMidYMid meet">
<metadata>
Created by potrace 1.16, written by Peter Selinger 2001-2019
</metadata>
<g transform="translate(0.000000,520.000000) scale(0.100000,-0.100000)"
fill="#000000" stroke="none">
<path d="M5077 4139 c-88 -21 -171 -79 -223 -156 -46 -69 -64 -131 -64 -220
l0 -73 -128 0 -128 0 -38 50 c-44 58 -136 129 -219 172 -276 139 -644 59 -832
-180 -84 -107 -139 -236 -151 -360 -6 -58 -13 -73 -61 -141 -30 -41 -72 -112
-95 -158 l-40 -83 -30 17 c-102 59 -179 181 -198 313 -7 53 -17 81 -33 98 -21
23 -26 24 -117 18 -446 -27 -803 -429 -777 -876 25 -420 333 -750 748 -800
145 -17 161 -6 179 120 12 83 45 159 96 218 35 41 114 102 131 102 4 -1 24
-35 43 -78 19 -42 59 -110 89 -152 50 -69 55 -82 67 -160 24 -160 75 -268 178
-378 212 -227 523 -283 806 -145 79 39 109 60 177 130 l83 83 125 0 125 0 0
-27 c0 -41 25 -116 54 -161 40 -63 95 -112 166 -146 62 -30 70 -31 190 -30
301 1 588 111 830 318 42 36 78 58 100 62 162 28 309 85 437 170 110 73 182
141 265 248 168 218 250 504 220 774 -16 145 -43 236 -106 367 -64 131 -125
213 -235 318 -125 119 -273 204 -437 252 -85 25 -89 27 -174 113 -213 214
-480 345 -780 382 -99 12 -190 12 -243 -1z m348 -249 c122 -32 195 -61 290
-118 132 -79 159 -72 -300 -72 l-408 0 7 62 c8 79 34 121 96 151 28 13 232 -1
315 -23z m-1312 -167 c27 -8 46 -17 43 -20 -2 -3 -55 -9 -117 -14 -115 -9
-238 -37 -319 -72 -91 -39 -95 -40 -79 -20 49 61 175 130 260 143 67 10 149 3
212 -17z m217 -1122 l0 -930 -97 -3 c-139 -4 -271 8 -361 33 -92 25 -219 85
-284 134 l-48 35 0 728 0 729 43 29 c110 78 244 135 376 158 42 8 142 15 224
15 l147 1 0 -929z m530 762 l0 -166 -23 21 c-15 14 -36 22 -59 22 -31 0 -43
-8 -87 -56 -94 -102 -153 -229 -181 -389 l-18 -100 -1 418 -1 417 185 0 185 0
0 -167z m774 130 c-78 -180 -132 -353 -166 -539 -29 -163 -32 -515 -5 -679 33
-198 106 -444 168 -567 11 -21 18 -38 17 -38 -2 0 -144 -1 -316 -3 l-312 -2 0
330 0 330 156 155 c86 85 160 165 165 178 5 12 5 32 0 45 -5 13 -79 94 -165
180 l-156 157 0 245 0 245 315 0 315 0 -16 -37z m276 -85 c-249 -519 -248
-1119 3 -1627 28 -58 53 -110 55 -114 2 -4 -27 -7 -64 -5 l-69 3 -23 43 c-74
133 -155 387 -188 588 -23 136 -26 447 -5 574 33 206 87 388 164 553 l50 107
68 0 68 0 -59 -122z m326 81 c429 -132 706 -556 654 -999 -24 -205 -114 -393
-260 -541 -124 -126 -255 -205 -412 -249 l-67 -18 -24 41 c-97 167 -168 348
-209 537 -20 93 -22 132 -22 340 0 258 9 319 74 525 44 139 165 385 189 385 5
0 40 -10 77 -21z m-3486 -354 c31 -77 111 -178 181 -230 32 -24 64 -45 70 -47
21 -7 35 -94 29 -177 -4 -45 -4 -118 0 -163 3 -46 2 -102 -3 -126 -8 -37 -16
-48 -67 -82 -84 -57 -162 -149 -202 -236 l-33 -74 -35 6 c-188 31 -358 158
-438 326 -22 46 -45 107 -51 136 -16 75 -14 208 4 276 53 203 214 371 410 427
101 29 109 27 135 -36z m618 -810 l-3 -276 -34 53 c-43 65 -92 180 -117 273
-29 107 -27 352 4 459 26 89 74 199 118 266 l29 45 3 -272 c1 -149 1 -396 0
-548z m1612 520 l165 -165 -165 -165 c-132 -132 -167 -162 -178 -153 -25 21
-69 122 -86 195 -20 88 -20 157 -1 246 13 62 79 207 94 207 3 0 80 -74 171
-165z m-445 -390 c30 -104 94 -214 168 -292 47 -50 87 -56 131 -22 l26 20 0
-250 0 -251 -182 2 -183 3 -2 500 c-1 436 1 490 12 424 7 -41 20 -102 30 -134z
m-760 -898 c106 -34 174 -47 297 -56 l103 -7 -69 -22 c-151 -49 -307 -15 -434
93 -50 43 -55 62 -9 36 17 -10 68 -29 112 -44z m1875 -85 c-145 -72 -281 -105
-430 -106 -128 -1 -155 9 -185 71 -32 67 -51 63 328 62 l342 0 -55 -27z"/>
<path d="M6144 2936 c-28 -28 -34 -42 -34 -76 0 -34 6 -48 34 -76 28 -28 42
-34 76 -34 34 0 48 6 76 34 28 28 34 42 34 76 0 34 -6 48 -34 76 -28 28 -42
34 -76 34 -34 0 -48 -6 -76 -34z"/>
</g>
</svg>
